<?xml version="1.0" encoding="UTF-8" standalone="no"?>
<!DOCTYPE svg PUBLIC "-//W3C//DTD SVG 1.1//EN" "http://www.w3.org/Graphics/SVG/1.1/DTD/svg11.dtd">
<svg width="100%" height="100%" viewBox="0 0 14 14" version="1.1" xmlns="http://www.w3.org/2000/svg" xmlns:xlink="http://www.w3.org/1999/xlink" xml:space="preserve" xmlns:serif="http://www.serif.com/" style="fill-rule:evenodd;clip-rule:evenodd;stroke-linejoin:round;stroke-miterlimit:2;">
    <g transform="matrix(1,0,0,1,-2870,-120)">
        <g id="AppIcon-Safari" serif:id="AppIcon Safari" transform="matrix(0.0194444,0,0,0.0194444,2814.19,117.667)">
            <rect x="2870" y="120" width="720" height="720" style="fill:none;"/>
            <g transform="matrix(1.05751,0,0,0.993363,2701.24,12.1259)">
                <g transform="matrix(1.0014,0,0,0.796875,-3.70248,110.594)">
                    <path d="M716,478.673C716,442.979 694.339,414 667.658,414L338.342,414C311.661,414 290,442.979 290,478.673L290,765.327C290,801.021 311.661,830 338.342,830L667.658,830C694.339,830 716,801.021 716,765.327L716,478.673Z"/>
                </g>
                <g>
                    <g transform="matrix(0.691623,0,0,0.753846,143.94,65.9692)">
                        <path d="M742,365.5C742,239.855 640.145,138 514.5,138C388.855,138 287,239.855 287,365.5L377.152,365.5C377.152,289.645 438.645,228.152 514.5,228.152C590.355,228.152 651.848,289.645 651.848,365.5L742,365.5Z"/>
                    </g>
                    <g transform="matrix(2.00095,0,0,1,-342.762,-1.87228e-05)">
                        <rect x="342.436" y="341.5" width="31.161" height="129"/>
                    </g>
                    <g transform="matrix(2.00095,0,0,1,-657.749,-5.09119e-05)">
                        <rect x="625.964" y="341.5" width="31.161" height="129"/>
                    </g>
                </g>
            </g>
        </g>
    </g>
</svg>
